<?xml version="1.0" standalone="no"?>
<!DOCTYPE svg PUBLIC "-//W3C//DTD SVG 20010904//EN"
 "http://www.w3.org/TR/2001/REC-SVG-20010904/DTD/svg10.dtd">
<svg version="1.0" xmlns="http://www.w3.org/2000/svg"
 width="225.000000pt" height="225.000000pt" viewBox="0 0 225.000000 225.000000"
 preserveAspectRatio="xMidYMid meet">

<g transform="translate(0.000000,225.000000) scale(0.100000,-0.100000)"
fill="#000000" stroke="none">
<path d="M0 1125 l0 -1125 1125 0 1125 0 0 1125 0 1125 -1125 0 -1125 0 0
-1125z m1087 839 c43 -66 4 -188 -88 -281 l-53 -53 40 0 c28 0 50 9 78 30 49
37 67 37 121 0 31 -21 55 -30 84 -30 l40 0 -48 45 c-64 60 -102 132 -108 203
-5 65 11 105 44 110 17 2 23 -3 28 -28 10 -47 49 -85 133 -131 130 -71 182
-121 182 -175 0 -19 7 -22 63 -26 100 -8 170 -55 214 -142 20 -39 20 -39 81
-40 53 -1 65 -5 88 -27 28 -28 25 -49 -6 -49 -28 0 -71 -22 -67 -34 2 -6 23
-18 47 -27 24 -9 46 -21 48 -27 1 -5 -9 -20 -25 -32 -22 -17 -39 -21 -86 -19
-59 3 -60 2 -77 -34 -23 -47 -53 -85 -90 -112 l-29 -21 34 -13 c43 -15 93 -73
140 -162 49 -93 79 -127 126 -139 44 -12 49 -30 17 -60 -44 -41 -161 -19 -237
46 -32 27 -35 27 -45 10 -111 -192 -265 -334 -471 -436 -118 -59 -144 -60
-240 -16 -99 46 -251 147 -333 221 -68 62 -141 158 -166 218 l-16 39 -37 -30
c-98 -77 -194 -93 -248 -42 -28 26 -19 50 18 50 38 0 83 47 132 139 51 97 119
171 157 171 19 0 16 5 -21 36 -23 20 -56 60 -72 89 l-29 51 -58 -4 c-42 -3
-68 1 -90 12 -40 21 -42 51 -4 61 33 8 72 32 72 45 0 5 -12 13 -27 16 -45 11
-63 23 -56 40 9 24 58 44 106 44 43 0 46 2 67 43 46 90 104 126 215 134 71 6
73 7 79 34 9 45 79 113 159 155 119 62 135 78 161 157 8 25 33 21 53 -9z"/>
<path d="M1042 1914 c-26 -50 -65 -81 -165 -129 -65 -30 -83 -45 -108 -83 -37
-58 -37 -72 0 -72 24 0 30 5 34 29 6 30 37 49 58 35 6 -3 9 -19 7 -35 -8 -51
30 -36 103 39 92 97 125 173 100 237 -7 18 -10 15 -29 -21z m-7 -84 c4 -6 1
-18 -6 -26 -11 -13 -14 -13 -27 0 -8 8 -11 19 -8 25 9 14 33 14 41 1z m-76
-64 c20 -24 -4 -58 -37 -54 -32 4 -40 29 -17 52 20 20 39 20 54 2z"/>
<path d="M1181 1927 c-16 -40 0 -91 50 -166 48 -72 114 -131 146 -131 20 0 22
4 17 30 -5 21 -2 31 9 36 25 9 57 -14 57 -41 0 -21 5 -25 30 -25 l30 0 -15 38
c-19 46 -59 81 -147 128 -83 43 -136 88 -154 129 l-12 30 -11 -28z m87 -110
c2 -11 -3 -17 -16 -17 -20 0 -36 23 -24 34 11 12 37 1 40 -17z m83 -47 c20
-11 26 -45 8 -55 -21 -14 -59 5 -59 29 0 37 15 45 51 26z"/>
<path d="M1071 1629 c-34 -24 -42 -35 -37 -52 3 -12 8 -41 12 -65 l7 -43 70 3
71 3 8 40 c4 22 10 50 13 62 4 18 -4 29 -36 53 -23 16 -47 30 -54 30 -7 0 -31
-14 -54 -31z"/>
<path d="M605 1586 c-18 -13 -18 -17 13 -112 69 -216 84 -323 58 -421 -18 -73
-63 -163 -107 -215 -26 -30 -30 -41 -24 -68 11 -48 98 -171 168 -236 109 -101
352 -244 416 -244 65 0 293 138 418 253 56 52 123 137 152 196 l23 44 -21 26
c-57 69 -104 152 -123 214 -17 58 -20 85 -15 166 6 89 40 250 71 331 14 36 11
60 -8 72 -6 4 -93 8 -192 8 -188 0 -194 -1 -194 -41 0 -5 69 -9 159 -9 120 0
161 -3 170 -13 8 -10 4 -39 -15 -113 -35 -135 -45 -343 -19 -429 16 -57 44
-115 86 -182 l20 -32 -20 -47 c-25 -56 -63 -102 -145 -172 -80 -71 -184 -140
-274 -186 l-73 -37 -92 46 c-246 124 -416 287 -417 399 0 16 13 50 29 75 92
144 101 327 27 581 -17 60 -21 89 -14 97 8 10 56 13 179 13 96 0 169 4 169 9
0 40 -6 41 -199 41 -144 0 -192 -3 -206 -14z"/>
<path d="M522 1570 c-31 -19 -93 -103 -91 -124 0 -6 23 -26 51 -44 l51 -33 31
38 c33 39 34 58 9 107 -8 16 -13 39 -10 52 5 29 1 29 -41 4z m27 -74 c18 -22
-3 -56 -35 -56 -32 0 -41 25 -19 50 21 24 38 25 54 6z"/>
<path d="M1670 1562 c0 -16 -7 -50 -16 -76 l-16 -48 37 -38 38 -39 46 32 c25
17 47 32 49 33 2 1 -3 17 -11 35 -19 45 -63 96 -98 115 -29 14 -29 14 -29 -14z
m75 -68 c25 -25 15 -49 -20 -49 -21 0 -31 5 -33 18 -9 44 22 62 53 31z"/>
<path d="M690 1515 c0 -3 12 -49 26 -102 31 -116 43 -314 25 -404 -11 -53 -51
-145 -86 -199 -16 -24 -16 -28 6 -75 30 -66 133 -167 240 -238 47 -31 89 -57
91 -57 3 0 9 21 13 48 3 26 9 56 11 68 5 18 0 22 -36 28 -71 11 -138 52 -171
104 -34 54 -51 110 -47 155 l3 32 90 3 c112 4 135 -2 135 -31 0 -12 10 -42 21
-67 18 -39 22 -42 29 -25 4 11 10 64 14 117 l6 96 -32 7 c-100 22 -203 95
-229 162 -27 72 1 172 66 238 35 34 124 85 151 85 6 0 9 13 6 30 l-4 30 -164
0 c-90 0 -164 -2 -164 -5z"/>
<path d="M1230 1506 c0 -8 -2 -21 -5 -28 -4 -10 6 -18 33 -26 81 -25 172 -140
172 -219 l0 -33 -95 0 c-59 0 -95 4 -95 10 0 6 -7 27 -15 48 -23 53 -35 27
-35 -74 l0 -81 48 -13 c146 -40 231 -107 251 -198 25 -119 -38 -229 -164 -288
-27 -13 -60 -24 -72 -24 -27 0 -28 -14 -12 -90 8 -38 15 -50 25 -46 74 29 289
223 328 297 l19 37 -37 56 c-57 86 -77 155 -83 279 -6 112 5 207 37 335 l18
72 -159 0 c-131 0 -159 -3 -159 -14z"/>
<path d="M998 1422 c-110 -40 -178 -120 -178 -210 0 -90 49 -150 154 -188 37
-13 71 -24 76 -24 6 0 10 27 10 59 0 50 -4 62 -21 75 -118 82 -40 243 105 222
53 -8 104 -52 113 -97 5 -29 7 -29 74 -29 79 0 82 5 50 76 -23 52 -78 97 -143
118 -65 21 -179 20 -240 -2z"/>
<path d="M296 1411 c-3 -5 8 -14 24 -21 43 -18 84 -69 130 -159 43 -86 81
-124 140 -142 58 -18 70 -9 70 53 0 53 0 53 -82 136 -99 102 -164 142 -230
142 -26 0 -49 -4 -52 -9z m142 -48 c5 -18 -28 -29 -38 -12 -5 7 -6 17 -3 22 7
12 35 5 41 -10z m76 -69 c20 -19 20 -38 2 -53 -33 -28 -74 27 -44 57 16 16 23
15 42 -4z m84 -100 c26 -18 28 -36 7 -54 -12 -10 -20 -9 -40 4 -27 18 -32 35
-13 54 15 15 19 15 46 -4z"/>
<path d="M1837 1406 c-45 -17 -57 -26 -164 -130 l-83 -81 0 -59 0 -59 51 5
c60 6 106 45 146 123 53 103 91 154 134 176 32 16 39 23 28 30 -20 13 -68 10
-112 -5z m16 -32 c11 -11 -5 -34 -24 -34 -18 0 -26 20 -12 33 8 9 28 9 36 1z
m-73 -79 c25 -30 -16 -79 -46 -54 -18 15 -18 34 2 53 19 20 28 20 44 1z m-82
-97 c18 -18 14 -36 -12 -53 -47 -31 -80 17 -34 49 27 19 31 19 46 4z"/>
<path d="M580 1380 c-21 -30 -21 -30 -2 -57 11 -16 32 -39 47 -53 l27 -25 -7
30 c-13 56 -36 135 -40 135 -2 0 -13 -13 -25 -30z"/>
<path d="M1626 1389 c-9 -24 -25 -103 -26 -122 0 -25 9 -20 55 31 l38 43 -31
31 c-23 24 -32 28 -36 17z"/>
<path d="M327 1305 c-15 -14 -35 -25 -43 -25 -8 0 -12 -4 -9 -10 7 -12 94 -13
112 -2 9 6 6 15 -10 35 l-22 26 -28 -24z"/>
<path d="M1085 1324 c-7 -3 -8 -34 -2 -97 9 -93 3 -381 -9 -470 l-7 -48 54 3
c33 2 53 7 52 14 -10 55 -19 374 -13 469 6 87 5 122 -3 127 -13 8 -55 9 -72 2z"/>
<path d="M1867 1291 c-17 -29 -17 -29 11 -33 16 -2 44 0 62 5 l35 9 -34 14
c-19 8 -40 19 -46 24 -7 6 -17 0 -28 -19z"/>
<path d="M1026 1288 c-20 -28 -20 -61 -1 -98 25 -49 34 -35 28 43 -3 39 -7 73
-8 75 -2 2 -10 -7 -19 -20z"/>
<path d="M1180 1046 c0 -55 12 -85 40 -96 15 -6 40 -24 54 -39 85 -89 -6 -231
-148 -231 -82 0 -131 38 -151 117 l-12 48 -87 3 c-84 3 -86 2 -86 -20 0 -81
67 -174 148 -205 66 -25 285 -26 357 0 106 37 167 116 167 217 0 102 -50 158
-180 203 -94 33 -102 33 -102 3z"/>
<path d="M515 1021 c-42 -26 -56 -44 -115 -146 -59 -104 -80 -129 -122 -146
-37 -15 -20 -29 35 -29 56 0 113 34 193 114 65 66 134 176 134 213 0 20 -89
17 -125 -6z m73 -44 c5 -25 -16 -47 -43 -47 -30 0 -38 22 -18 49 18 26 56 25
61 -2z m-94 -73 c23 -9 20 -51 -5 -64 -38 -21 -65 22 -33 54 18 18 17 18 38
10z m-87 -130 c8 -21 -13 -42 -28 -27 -13 13 -5 43 11 43 6 0 13 -7 17 -16z"/>
<path d="M1610 1018 c0 -34 52 -119 115 -186 97 -105 192 -154 252 -131 l28
11 -36 18 c-48 25 -82 67 -129 159 -57 113 -105 151 -191 151 -34 0 -39 -3
-39 -22z m125 -38 c24 -26 13 -52 -21 -48 -31 3 -50 28 -41 52 9 22 40 20 62
-4z m66 -80 c23 -13 25 -55 3 -64 -18 -7 -54 19 -54 39 0 10 19 35 28 35 2 0
12 -5 23 -10z m86 -121 c14 -14 6 -39 -12 -39 -18 0 -28 17 -21 35 6 18 18 19
33 4z"/>
<path d="M1194 833 c4 -54 10 -100 12 -103 10 -9 40 18 57 53 24 47 15 88 -25
122 -48 41 -51 35 -44 -72z"/>
<path d="M1047 553 c-3 -10 -8 -36 -12 -58 -3 -22 -8 -47 -11 -56 -3 -12 10
-22 52 -39 l56 -23 44 21 c49 24 48 21 32 108 l-11 64 -73 0 c-61 0 -73 -3
-77 -17z"/>
</g>
</svg>
